# Blender 4.1.1
# www.blender.org
o Pillar
v -1.000000 -3.000000 1.000000
v -1.000000 3.000000 1.000000
v -1.000000 -3.000000 -1.000000
v -1.000000 3.000000 -1.000000
v 1.000000 -3.000000 1.000000
v 1.000000 3.000000 1.000000
v 1.000000 -3.000000 -1.000000
v 1.000000 3.000000 -1.000000
v -0.556496 -0.000000 0.556496
v -0.556496 -0.000000 -0.556496
v 0.556496 -0.000000 -0.556496
v 0.556496 -0.000000 0.556496
v -1.000000 -2.317242 -1.000000
v 1.000000 -2.317242 -1.000000
v 1.000000 -2.317242 1.000000
v -1.000000 -2.317242 1.000000
v -1.000000 2.317242 1.000000
v -1.000000 2.317242 -1.000000
v 1.000000 2.317242 -1.000000
v 1.000000 2.317242 1.000000
v -0.556496 -1.952181 0.556496
v -0.556496 -1.952181 -0.556496
v 0.556496 -1.952181 -0.556496
v 0.556496 -1.952181 0.556496
v -0.556496 1.952181 -0.556496
v 0.556496 1.952181 -0.556496
v 0.556496 1.952181 0.556496
v -0.556496 1.952181 0.556496
vn -1.0000 -0.0000 -0.0000
vn -0.0000 -0.0000 -1.0000
vn 1.0000 -0.0000 -0.0000
vn -0.0000 -0.0000 1.0000
vn -0.0000 -1.0000 -0.0000
vn -0.0000 1.0000 -0.0000
vn -0.0000 -0.7721 0.6355
vn 0.6355 -0.7721 -0.0000
vn -0.0000 -0.7721 -0.6355
vn -0.6355 -0.7721 -0.0000
vn -0.6355 0.7721 -0.0000
vn -0.0000 0.7721 -0.6355
vn 0.6355 0.7721 -0.0000
vn -0.0000 0.7721 0.6355
vt 0.625000 0.000000
vt 0.562500 0.250000
vt 0.562500 0.000000
vt 0.625000 0.250000
vt 0.562500 0.500000
vt 0.625000 0.500000
vt 0.562500 0.750000
vt 0.625000 0.750000
vt 0.562500 1.000000
vt 0.375000 0.500000
vt 0.125000 0.750000
vt 0.125000 0.500000
vt 0.875000 0.500000
vt 0.500000 0.750000
vt 0.468750 1.000000
vt 0.468750 0.750000
vt 0.500000 0.500000
vt 0.468750 0.500000
vt 0.500000 0.250000
vt 0.468750 0.250000
vt 0.500000 0.000000
vt 0.468750 0.000000
vt 0.437500 0.000000
vt 0.375000 0.250000
vt 0.375000 0.000000
vt 0.437500 0.250000
vt 0.437500 0.500000
vt 0.375000 0.750000
vt 0.437500 0.750000
vt 0.375000 1.000000
vt 0.531250 1.000000
vt 0.531250 0.750000
vt 0.531250 0.500000
vt 0.531250 0.250000
vt 0.531250 0.000000
vt 0.437500 1.000000
vt 0.500000 1.000000
vt 0.625000 1.000000
vt 0.875000 0.750000
s 0
f 2/1/1 18/2/1 17/3/1
f 4/4/2 19/5/2 18/2/2
f 8/6/3 20/7/3 19/5/3
f 6/8/4 17/9/4 20/7/4
f 7/10/5 1/11/5 3/12/5
f 4/13/6 6/8/6 8/6/6
f 12/14/4 21/15/4 24/16/4
f 11/17/3 24/16/3 23/18/3
f 10/19/2 23/18/2 22/20/2
f 9/21/1 22/20/1 21/22/1
f 16/23/1 3/24/1 1/25/1
f 13/26/2 7/10/2 3/24/2
f 14/27/3 5/28/3 7/10/3
f 15/29/4 1/30/4 5/28/4
f 20/7/7 28/31/7 27/32/7
f 19/5/8 27/32/8 26/33/8
f 18/2/9 26/33/9 25/34/9
f 17/3/10 25/34/10 28/35/10
f 21/22/11 13/26/11 16/23/11
f 22/20/12 14/27/12 13/26/12
f 23/18/13 15/29/13 14/27/13
f 24/16/14 16/36/14 15/29/14
f 28/35/1 10/19/1 9/21/1
f 25/34/2 11/17/2 10/19/2
f 26/33/3 12/14/3 11/17/3
f 27/32/4 9/37/4 12/14/4
f 2/1/1 4/4/1 18/2/1
f 4/4/2 8/6/2 19/5/2
f 8/6/3 6/8/3 20/7/3
f 6/8/4 2/38/4 17/9/4
f 7/10/5 5/28/5 1/11/5
f 4/13/6 2/39/6 6/8/6
f 12/14/4 9/37/4 21/15/4
f 11/17/3 12/14/3 24/16/3
f 10/19/2 11/17/2 23/18/2
f 9/21/1 10/19/1 22/20/1
f 16/23/1 13/26/1 3/24/1
f 13/26/2 14/27/2 7/10/2
f 14/27/3 15/29/3 5/28/3
f 15/29/4 16/36/4 1/30/4
f 20/7/7 17/9/7 28/31/7
f 19/5/8 20/7/8 27/32/8
f 18/2/9 19/5/9 26/33/9
f 17/3/10 18/2/10 25/34/10
f 21/22/11 22/20/11 13/26/11
f 22/20/12 23/18/12 14/27/12
f 23/18/13 24/16/13 15/29/13
f 24/16/14 21/15/14 16/36/14
f 28/35/1 25/34/1 10/19/1
f 25/34/2 26/33/2 11/17/2
f 26/33/3 27/32/3 12/14/3
f 27/32/4 28/31/4 9/37/4
