# Blender 4.1.1
# www.blender.org
o Cube
v -0.533940 -0.000892 -0.008583
v -0.533940 -0.009817 -0.017508
v -0.533940 -0.026983 -0.017508
v -0.533940 -0.035908 -0.008583
v -0.533940 -0.009817 0.017508
v -0.533940 -0.000892 0.008583
v -0.533940 -0.035908 0.008583
v -0.533940 -0.026983 0.017508
v 0.252283 -0.032521 0.100000
v 0.252283 -0.083497 0.049024
v 0.252283 0.116503 0.049024
v 0.252283 0.065528 0.100000
v -0.347717 -0.083497 0.049024
v -0.347717 -0.032521 0.100000
v -0.347717 0.065528 0.100000
v -0.347717 0.116503 0.049024
v 0.252283 -0.083497 -0.049024
v 0.252283 -0.032521 -0.100000
v 0.252283 0.065528 -0.100000
v 0.252283 0.116503 -0.049024
v -0.347717 -0.032521 -0.100000
v -0.347717 -0.083497 -0.049024
v -0.347717 0.116503 -0.049024
v -0.347717 0.065528 -0.100000
v 0.388669 0.076702 0.011177
v 0.388669 0.088324 0.022799
v 0.388669 0.110678 0.022799
v 0.388669 0.122301 0.011177
v 0.388669 0.088324 -0.022799
v 0.388669 0.076702 -0.011177
v 0.388669 0.122301 -0.011177
v 0.388669 0.110678 -0.022799
v 0.265922 0.117083 -0.015688
v 0.265922 0.117083 0.015688
v 0.375031 0.121721 -0.008942
v 0.375031 0.121721 0.008942
v 0.338814 0.219303 -0.015688
v 0.338814 0.219303 0.015688
v 0.447923 0.223941 -0.008942
v 0.447923 0.223941 0.008942
v 0.132283 0.004737 0.100000
v -0.227717 0.004737 0.100000
v -0.227717 0.028269 0.100000
v 0.132283 0.028269 0.100000
v -0.227717 0.004737 -0.100000
v 0.132283 0.004737 -0.100000
v 0.132283 0.028269 -0.100000
v -0.227717 0.028269 -0.100000
v 0.397009 0.004737 0.400000
v 0.037009 0.004737 0.400000
v 0.037009 0.028269 0.400000
v 0.397009 0.028269 0.400000
v 0.037009 0.004737 -0.400000
v 0.397009 0.004737 -0.400000
v 0.397009 0.028269 -0.400000
v 0.037009 0.028269 -0.400000
vn 0.1639 0.6975 -0.6975
vn -0.0000 -0.0000 -1.0000
vn -1.0000 -0.0000 -0.0000
vn -0.0000 1.0000 -0.0000
vn -0.0000 -0.0000 1.0000
vn -0.2476 -0.9689 -0.0000
vn -0.0000 -0.7071 0.7071
vn -0.0000 0.7071 0.7071
vn -0.0000 -0.7071 -0.7071
vn -0.0000 0.7071 -0.7071
vn -0.0000 -1.0000 -0.0000
vn -0.4050 -0.0000 -0.9143
vn -0.5141 0.6065 -0.6065
vn -0.3170 -0.6706 -0.6706
vn -0.4050 -0.0000 0.9143
vn -0.5141 0.6065 0.6065
vn -0.5333 0.8459 -0.0000
vn -0.3170 -0.6706 0.6706
vn 1.0000 -0.0000 -0.0000
vn -0.0425 0.9991 -0.0000
vn 0.7164 -0.4933 -0.4933
vn 0.7614 -0.6482 -0.0000
vn 0.1639 0.6975 0.6975
vn 0.7164 -0.4933 0.4933
vn 0.4926 -0.0000 -0.8703
vn 0.4926 -0.0000 0.8703
vn 0.0636 -0.0453 0.9969
vn 0.8142 -0.5806 -0.0000
vn 0.0636 -0.0453 -0.9969
vn -0.8142 0.5806 -0.0000
vn 0.7498 -0.0000 0.6616
vn 0.7498 -0.0000 -0.6616
vn -0.7498 -0.0000 0.6616
vn -0.7498 -0.0000 -0.6616
vt 0.688720 0.750000
vt 0.561280 0.750000
vt 0.561280 0.500000
vt 0.625000 0.313720
vt 0.375000 0.436280
vt 0.811280 0.500000
vt 0.688720 0.500000
vt 0.561280 0.250000
vt 0.561280 0.000000
vt 0.188720 0.500000
vt 0.311280 0.500000
vt 0.188720 0.750000
vt 0.125000 0.500000
vt 0.625000 0.250000
vt 0.625000 0.000000
vt 0.438720 0.750000
vt 0.311280 0.750000
vt 0.438720 0.500000
vt 0.438720 0.250000
vt 0.625000 0.813720
vt 0.561280 1.000000
vt 0.375000 0.936280
vt 0.125000 0.750000
vt 0.438720 0.000000
vt 0.811280 0.750000
vt 0.625000 0.936280
vt 0.375000 0.313720
vt 0.625000 0.436280
vt 0.375000 0.813720
vt 0.438720 1.000000
s 0
f 20/1/1 32/2/1 19/2/1
f 19/2/2 48/3/2 24/3/2
f 6/4/3 2/3/3 4/5/3
f 16/6/4 20/1/4 23/7/4
f 15/8/5 44/9/5 12/9/5
f 13/10/6 4/11/6 22/11/6
f 10/12/7 14/13/7 13/10/7
f 16/14/8 12/9/8 11/15/8
f 22/11/9 18/16/9 17/17/9
f 20/1/10 24/3/10 23/7/10
f 22/11/11 10/12/11 13/10/11
f 21/18/12 2/3/12 24/3/12
f 24/3/13 1/7/13 23/7/13
f 22/11/14 3/18/14 21/18/14
f 14/19/15 5/8/15 8/19/15
f 15/8/16 6/14/16 5/8/16
f 23/7/17 6/6/17 16/6/17
f 13/10/18 8/13/18 7/10/18
f 31/20/19 27/21/19 25/22/19
f 11/15/20 36/15/20 34/15/20
f 18/16/21 30/17/21 17/17/21
f 10/12/22 30/17/22 25/12/22
f 11/15/23 27/9/23 28/15/23
f 9/23/24 25/12/24 26/23/24
f 19/2/25 29/16/25 18/16/25
f 12/9/26 26/24/26 27/9/26
f 36/15/27 38/15/27 34/15/27
f 20/1/20 35/1/20 31/1/20
f 11/25/20 33/1/20 20/1/20
f 31/20/20 36/26/20 28/26/20
f 38/25/20 39/1/20 37/1/20
f 35/20/28 40/26/28 36/26/28
f 35/1/29 37/1/29 39/1/29
f 34/25/30 37/1/30 33/1/30
f 44/9/4 51/8/4 52/9/4
f 12/9/5 41/24/5 9/24/5
f 9/23/5 42/13/5 14/13/5
f 14/19/5 43/8/5 15/8/5
f 46/16/31 55/2/31 47/2/31
f 21/18/2 46/16/2 18/16/2
f 18/16/2 47/2/2 19/2/2
f 24/3/2 45/18/2 21/18/2
f 52/9/5 50/19/5 49/24/5
f 44/9/32 49/24/32 41/24/32
f 41/23/11 50/13/11 42/13/11
f 42/19/33 51/8/33 43/8/33
f 56/3/2 54/16/2 53/18/2
f 46/16/11 53/18/11 54/16/11
f 48/3/34 53/18/34 45/18/34
f 47/2/4 56/3/4 48/3/4
f 20/1/1 31/1/1 32/2/1
f 19/2/2 47/2/2 48/3/2
f 4/5/3 7/27/3 8/19/3
f 8/19/3 5/8/3 6/4/3
f 6/4/3 1/28/3 2/3/3
f 2/3/3 3/18/3 4/5/3
f 4/5/3 8/19/3 6/4/3
f 16/6/4 11/25/4 20/1/4
f 15/8/5 43/8/5 44/9/5
f 13/10/6 7/10/6 4/11/6
f 10/12/7 9/23/7 14/13/7
f 16/14/8 15/8/8 12/9/8
f 22/11/9 21/18/9 18/16/9
f 20/1/10 19/2/10 24/3/10
f 22/11/11 17/17/11 10/12/11
f 21/18/12 3/18/12 2/3/12
f 24/3/13 2/3/13 1/7/13
f 22/11/14 4/11/14 3/18/14
f 14/19/15 15/8/15 5/8/15
f 15/8/16 16/14/16 6/14/16
f 23/7/17 1/7/17 6/6/17
f 13/10/18 14/13/18 8/13/18
f 25/22/19 30/29/19 29/16/19
f 29/16/19 32/2/19 31/20/19
f 31/20/19 28/26/19 27/21/19
f 27/21/19 26/30/19 25/22/19
f 25/22/19 29/16/19 31/20/19
f 11/15/20 28/15/20 36/15/20
f 18/16/21 29/16/21 30/17/21
f 10/12/22 17/17/22 30/17/22
f 11/15/23 12/9/23 27/9/23
f 9/23/24 10/12/24 25/12/24
f 19/2/25 32/2/25 29/16/25
f 12/9/26 9/24/26 26/24/26
f 36/15/27 40/15/27 38/15/27
f 20/1/20 33/1/20 35/1/20
f 11/25/20 34/25/20 33/1/20
f 31/20/20 35/20/20 36/26/20
f 38/25/20 40/25/20 39/1/20
f 35/20/28 39/20/28 40/26/28
f 35/1/29 33/1/29 37/1/29
f 34/25/30 38/25/30 37/1/30
f 44/9/4 43/8/4 51/8/4
f 12/9/5 44/9/5 41/24/5
f 9/23/5 41/23/5 42/13/5
f 14/19/5 42/19/5 43/8/5
f 46/16/31 54/16/31 55/2/31
f 21/18/2 45/18/2 46/16/2
f 18/16/2 46/16/2 47/2/2
f 24/3/2 48/3/2 45/18/2
f 52/9/5 51/8/5 50/19/5
f 44/9/32 52/9/32 49/24/32
f 41/23/11 49/23/11 50/13/11
f 42/19/33 50/19/33 51/8/33
f 56/3/2 55/2/2 54/16/2
f 46/16/11 45/18/11 53/18/11
f 48/3/34 56/3/34 53/18/34
f 47/2/4 55/2/4 56/3/4
