# Blender 4.1.1
# www.blender.org
o Cube
v 3.000000 -1.000000 2.000000
v 3.000000 -1.000000 1.000000
v 3.500000 -0.500000 1.000000
v 3.500000 -0.500000 2.000000
v 3.500000 0.500000 1.000000
v 3.000000 1.000000 1.000000
v 3.000000 1.000000 2.000000
v 3.500000 0.500000 2.000000
v 3.000000 -1.000000 3.000000
v 3.500000 -0.500000 3.000000
v 3.000000 -0.500000 3.500000
v 3.000000 1.000000 3.000000
v 3.000000 0.500000 3.500000
v 3.500000 0.500000 3.000000
v 1.000000 -1.000000 2.000000
v 1.000000 -0.500000 1.500000
v 1.500000 -0.500000 1.000000
v 2.000000 -1.000000 1.000000
v 2.000000 -1.000000 2.000000
v 1.000000 1.000000 2.000000
v 2.000000 1.000000 2.000000
v 2.000000 1.000000 1.000000
v 1.500000 0.500000 1.000000
v 1.000000 0.500000 1.500000
v 2.000000 -1.000000 3.000000
v 2.000000 -0.500000 3.500000
v 1.000000 -0.500000 3.500000
v 1.000000 -1.000000 3.000000
v 2.000000 1.000000 3.000000
v 1.000000 1.000000 3.000000
v 1.000000 0.500000 3.500000
v 2.000000 0.500000 3.500000
v -3.000000 0.500000 3.500000
v -3.000000 1.000000 3.000000
v -3.500000 0.500000 3.000000
v -3.000000 -0.500000 3.500000
v -3.500000 -0.500000 3.000000
v -3.000000 -1.000000 3.000000
v -3.000000 -1.000000 2.000000
v -3.500000 -0.500000 2.000000
v -3.000000 -0.500000 1.500000
v -3.000000 1.000000 2.000000
v -3.000000 0.500000 1.500000
v -3.500000 0.500000 2.000000
v 3.500000 -0.500000 -3.000000
v 3.000000 -1.000000 -3.000000
v 3.000000 -0.500000 -3.500000
v 3.500000 0.500000 -3.000000
v 3.000000 0.500000 -3.500000
v 3.000000 1.000000 -3.000000
v 1.500000 0.500000 -3.000000
v 2.000000 1.000000 -3.000000
v 2.000000 0.500000 -3.500000
v 1.500000 -0.500000 -3.000000
v 2.000000 -0.500000 -3.500000
v 2.000000 -1.000000 -3.000000
vn -0.0000 -1.0000 -0.0000
vn -0.0000 1.0000 -0.0000
vn -0.0000 -0.0000 1.0000
vn 1.0000 -0.0000 -0.0000
vn -0.0000 -0.0000 -1.0000
vn -1.0000 -0.0000 -0.0000
vn 0.7071 -0.7071 -0.0000
vn 0.7071 0.7071 -0.0000
vn 0.5774 -0.5774 0.5774
vn 0.5774 0.5774 0.5774
vn -0.5774 -0.5774 -0.5774
vn -0.0000 -0.7071 0.7071
vn -0.0000 0.7071 0.7071
vn -0.5774 0.5774 0.5774
vn -0.5774 -0.5774 0.5774
vn -0.5774 0.5774 -0.5774
vn 0.5774 -0.5774 -0.5774
vn 0.5774 0.5774 -0.5774
vn 0.7071 -0.0000 0.7071
vn -0.7071 -0.0000 -0.7071
vn -0.7071 -0.0000 0.7071
vn -0.7071 -0.7071 -0.0000
vn -0.7071 0.7071 -0.0000
vn -0.0000 -0.7071 -0.7071
vn -0.0000 0.7071 -0.7071
vn 0.7071 -0.0000 -0.7071
vt 0.312500 0.750000
vt 0.187500 0.750000
vt 0.187500 0.750000
vt 0.375000 0.562500
vt 0.375000 0.687500
vt 0.625000 0.687500
vt 0.625000 0.562500
vt 0.562500 0.312500
vt 0.437500 0.437500
vt 0.437500 0.312500
vt 0.562500 0.062500
vt 0.437500 0.187500
vt 0.437500 0.062500
vt 0.812500 0.750000
vt 0.687500 0.750000
vt 0.687500 0.750000
vt 0.562500 0.812500
vt 0.437500 0.937500
vt 0.437500 0.812500
vt 0.562500 0.750000
vt 0.437500 0.750000
vt 0.562500 0.500000
vt 0.437500 0.500000
vt 0.562500 0.562500
vt 0.437500 0.687500
vt 0.437500 0.562500
vt 0.812500 0.562500
vt 0.687500 0.687500
vt 0.687500 0.562500
vt 0.437500 0.000000
vt 0.562500 0.000000
vt 0.125000 0.750000
vt 0.625000 0.000000
vt 0.187500 0.562500
vt 0.125000 0.562500
vt 0.187500 0.500000
vt 0.625000 0.187500
vt 0.562500 0.250000
vt 0.562500 0.187500
vt 0.312500 0.500000
vt 0.312500 0.562500
vt 0.625000 0.500000
vt 0.562500 0.437500
vt 0.625000 0.437500
vt 0.562500 0.500000
vt 0.375000 0.562500
vt 0.437500 0.750000
vt 0.562500 0.687500
vt 0.125000 0.750000
vt 0.625000 0.812500
vt 0.375000 0.750000
vt 0.312500 0.750000
vt 0.187500 0.687500
vt 0.625000 0.062500
vt 0.625000 0.312500
vt 0.312500 0.687500
vt 0.812500 0.687500
vt 0.562500 0.750000
vt 0.625000 0.937500
vt 0.812500 0.750000
vt 0.562500 0.937500
vt 0.375000 0.500000
vt 0.125000 0.687500
s 0
f 18/1/1 46/2/1 2/3/1
f 28/4/1 39/5/1 15/5/1
f 20/6/2 34/7/2 30/7/2
f 13/8/3 26/9/3 11/10/3
f 8/11/4 10/12/4 4/13/4
f 6/14/2 52/15/2 22/16/2
f 53/17/5 47/18/5 55/19/5
f 23/20/6 54/21/6 17/21/6
f 31/22/3 36/23/3 27/23/3
f 35/24/6 40/25/6 37/26/6
f 16/21/5 43/20/5 24/20/5
f 12/27/2 21/28/2 29/29/2
f 3/30/4 48/31/4 5/31/4
f 2/3/7 4/32/7 1/2/7
f 6/33/8 8/31/8 5/31/8
f 9/34/9 10/35/9 11/36/9
f 12/37/10 13/38/10 14/39/10
f 16/21/11 18/1/11 15/5/11
f 20/6/2 21/28/2 22/16/2
f 26/40/12 28/4/12 25/41/12
f 30/42/13 32/43/13 29/44/13
f 33/45/14 34/7/14 35/24/14
f 36/23/15 37/26/15 38/46/15
f 39/5/11 40/25/11 41/47/11
f 42/6/16 43/20/16 44/48/16
f 45/49/17 46/2/17 47/2/17
f 48/31/18 49/31/18 50/33/18
f 51/20/16 52/50/16 53/17/16
f 54/51/11 55/1/11 56/52/11
f 1/53/7 10/35/7 9/34/7
f 5/31/4 4/13/4 3/30/4
f 12/37/8 8/11/8 7/54/8
f 11/10/19 14/39/19 13/8/19
f 9/34/12 26/40/12 25/41/12
f 29/44/13 13/8/13 12/55/13
f 27/23/3 32/43/3 31/22/3
f 25/41/1 15/5/1 19/56/1
f 21/28/2 30/7/2 29/29/2
f 17/21/20 24/20/20 23/20/20
f 19/56/1 2/3/1 1/53/1
f 7/57/2 22/16/2 21/28/2
f 37/26/21 33/45/21 35/24/21
f 38/46/22 40/25/22 39/5/22
f 42/6/23 35/24/23 34/7/23
f 41/47/20 44/48/20 43/20/20
f 39/5/24 16/21/24 15/5/24
f 20/6/25 43/20/25 42/6/25
f 36/23/12 28/4/12 27/23/12
f 31/22/13 34/7/13 33/45/13
f 49/31/26 45/30/26 47/30/26
f 55/19/20 51/58/20 53/17/20
f 56/52/24 47/2/24 46/2/24
f 50/59/25 53/17/25 52/50/25
f 48/31/8 6/33/8 5/31/8
f 23/20/23 52/15/23 51/58/23
f 18/1/22 54/21/22 56/52/22
f 46/2/7 3/32/7 2/3/7
f 25/41/1 1/53/1 9/34/1
f 20/6/16 23/20/16 24/20/16
f 19/56/1 15/5/1 18/1/1
f 18/1/1 56/52/1 46/2/1
f 28/4/1 38/46/1 39/5/1
f 20/6/2 42/6/2 34/7/2
f 13/8/3 32/43/3 26/9/3
f 8/11/4 14/39/4 10/12/4
f 6/14/2 50/60/2 52/15/2
f 53/17/5 49/61/5 47/18/5
f 23/20/6 51/58/6 54/21/6
f 31/22/3 33/45/3 36/23/3
f 35/24/6 44/48/6 40/25/6
f 16/21/5 41/47/5 43/20/5
f 12/27/2 7/57/2 21/28/2
f 3/30/4 45/30/4 48/31/4
f 2/3/7 3/32/7 4/32/7
f 6/33/8 7/33/8 8/31/8
f 16/21/11 17/21/11 18/1/11
f 26/40/12 27/62/12 28/4/12
f 30/42/13 31/22/13 32/43/13
f 1/53/7 4/63/7 10/35/7
f 5/31/4 8/11/4 4/13/4
f 12/37/8 14/39/8 8/11/8
f 11/10/19 10/12/19 14/39/19
f 9/34/12 11/36/12 26/40/12
f 29/44/13 32/43/13 13/8/13
f 27/23/3 26/9/3 32/43/3
f 25/41/1 28/4/1 15/5/1
f 21/28/2 20/6/2 30/7/2
f 17/21/20 16/21/20 24/20/20
f 19/56/1 18/1/1 2/3/1
f 7/57/2 6/14/2 22/16/2
f 37/26/21 36/23/21 33/45/21
f 38/46/22 37/26/22 40/25/22
f 42/6/23 44/48/23 35/24/23
f 41/47/20 40/25/20 44/48/20
f 39/5/24 41/47/24 16/21/24
f 20/6/25 24/20/25 43/20/25
f 36/23/12 38/46/12 28/4/12
f 31/22/13 30/7/13 34/7/13
f 49/31/26 48/31/26 45/30/26
f 55/19/20 54/21/20 51/58/20
f 56/52/24 55/1/24 47/2/24
f 50/59/25 49/61/25 53/17/25
f 48/31/8 50/33/8 6/33/8
f 23/20/23 22/16/23 52/15/23
f 18/1/22 17/21/22 54/21/22
f 46/2/7 45/49/7 3/32/7
f 25/41/1 19/56/1 1/53/1
f 20/6/16 22/16/16 23/20/16
